<svg xmlns="http://www.w3.org/2000/svg" width="42" height="42" viewBox="0 0 42 42">
  <g id="Group_299" data-name="Group 299" transform="translate(-295 -516)">
    <circle id="Ellipse_199" data-name="Ellipse 199" cx="21" cy="21" r="21" transform="translate(295 516)" fill="#499afd"/>
    <path id="Icon_ionic-ios-arrow-round-forward" data-name="Icon ionic-ios-arrow-round-forward" d="M23.658,11.568a1.123,1.123,0,0,0-.009,1.582l5.227,5.235H8.984a1.118,1.118,0,0,0,0,2.235H28.867l-5.227,5.235a1.131,1.131,0,0,0,.009,1.582,1.113,1.113,0,0,0,1.573-.009l7.083-7.135h0a1.255,1.255,0,0,0,.232-.352,1.067,1.067,0,0,0,.086-.43,1.12,1.12,0,0,0-.318-.782l-7.083-7.135A1.1,1.1,0,0,0,23.658,11.568Z" transform="translate(295.349 516.998)" fill="#fff"/>
  </g>
</svg>
