<?xml version="1.0" encoding="utf-8"?>
<!-- Generator: Adobe Illustrator 24.3.0, SVG Export Plug-In . SVG Version: 6.00 Build 0)  -->
<svg version="1.1" id="Layer_1" xmlns="http://www.w3.org/2000/svg" xmlns:xlink="http://www.w3.org/1999/xlink" x="0px" y="0px"
	 viewBox="0 0 342.1 342.1" style="enable-background:new 0 0 342.1 342.1;" xml:space="preserve">
<style type="text/css">
	.st0{fill:#FFFFFF;}
	.st1{fill:#545465;}
	.st2{fill:#494857;}
	.st3{fill:#F3D8B6;}
	.st4{fill:#EEC8A2;}
	.st5{fill:#FF628B;}
	.st6{fill:#C85279;}
	.st7{fill:#F3DBC4;}
	.st8{fill:#EDCEAE;}
</style>
<g id="XMLID_12_">
	<g id="XMLID_52_">
		<path id="XMLID_990_" class="st0" d="M250.4,249.3V342H91.7v-92.8c0,0,0,0,0,0c3.9-2.4,12.4-4.4,19.8-6v50.3h119.1v-50.3
			C238,244.9,246.5,246.9,250.4,249.3z"/>
	</g>
	<g id="XMLID_45_">
		<path id="XMLID_993_" class="st1" d="M270.5,283.7c26.4-24.1,11.2-120.5,11.2-142.4C281.7,59.8,238.9,0,171.1,0
			S60.4,59.8,60.4,141.3c0,21.9-15.2,118.3,11.2,142.4C108.3,317.2,233.8,317.2,270.5,283.7z"/>
		<path id="XMLID_996_" class="st2" d="M281.7,141.3C281.7,59.8,238.9,0,171.1,0v308.8c40.6,0,81.1-8.4,99.5-25.1
			C296.9,259.6,281.7,163.2,281.7,141.3z"/>
	</g>
	<g id="XMLID_41_">
		<g id="XMLID_997_">
			<path id="XMLID_998_" class="st3" d="M199.4,187.5h-26.9h-1.3h-0.4h-1.3h-26.9c0,74.6-36.4,67.8-36.4,67.8
				c0,47.4,51.2,62.4,63.3,66.8v1.5c0,0,0.5-0.1,1.4-0.4c0.9,0.2,1.4,0.4,1.4,0.4v-1.5c12.2-4.4,63.3-19.4,63.3-66.8
				C235.8,255.3,199.4,262.1,199.4,187.5z"/>
		</g>
		<path id="XMLID_999_" class="st4" d="M199.4,187.5h-26.9h-1.3h-0.2v135.8c0.9,0.2,1.4,0.4,1.4,0.4v-1.5
			c12.2-4.4,63.3-19.4,63.3-66.8C235.8,255.3,199.4,262.1,199.4,187.5z"/>
	</g>
	<g id="XMLID_38_">
		<path id="XMLID_40_" class="st5" d="M288,320.3l0,21.8v0.1L185.7,342l-14.6,0l-43.9,0l-35.5,0l-37.6,0l0-21.9
			c0-3.1,0.2-6.2,0.5-9.2c1.5-15.1,6.6-29,14.6-40.4c6-8.6,13.6-15.9,22.6-21.2c0,0,0,0,0,0c3.9-2.4,12.4-4.4,19.8-6
			c3.9-0.8,7.6-1.6,10-2.2c2.4-0.6,49.5,33.3,49.5,33.3s47.3-33.8,49.6-33.2c2.5,0.6,6.1,1.4,10,2.2c7.4,1.6,15.9,3.6,19.8,6
			c0,0,0,0,0,0c4.4,2.6,8.4,5.7,12.1,9.1c0.9,0.9,1.8,1.7,2.7,2.6v0c0.6,0.6,1.2,1.2,1.7,1.9c0.3,0.4,0.7,0.8,1,1.1
			c0.2,0.3,0.4,0.5,0.7,0.8c0.3,0.3,0.6,0.7,0.8,1c0.3,0.3,0.5,0.6,0.8,1c0.3,0.3,0.5,0.7,0.8,1C281.9,282,288.1,300.3,288,320.3z"
			/>
		<path id="XMLID_39_" class="st6" d="M271.1,267.8c-0.3-0.3-0.5-0.7-0.8-1c-0.3-0.3-0.5-0.6-0.8-1c-0.3-0.3-0.5-0.7-0.8-1
			c-0.2-0.3-0.4-0.5-0.7-0.8c-0.3-0.4-0.7-0.8-1-1.1c-0.6-0.6-1.1-1.2-1.7-1.9v0c-0.9-0.9-1.8-1.8-2.7-2.6
			c-3.7-3.4-7.7-6.5-12.1-9.1c0,0,0,0,0,0c-4-2.4-12.4-4.4-19.8-6c-3.9-0.8-7.5-1.6-10-2.2c-2.2-0.6-49.6,33.2-49.6,33.2s0,0,0,0
			V342h0l14.6,0l102.4,0.1V342l0-21.8C288.1,300.3,281.9,282,271.1,267.8z"/>
	</g>
	<g id="XMLID_35_">
		<path id="XMLID_1000_" class="st7" d="M107.1,120.9c1,21.1,4.4,39.8,8.3,47c9,16.7,29.2,39,55.7,39c26.4,0,46.6-22.3,55.7-39
			c3.9-7.2,7.3-26,8.3-47H107.1z"/>
		<path id="XMLID_1001_" class="st8" d="M171.1,120.9v86c0,0,0,0,0,0c26.4,0,46.6-22.3,55.7-39c3.9-7.2,7.3-26,8.3-47H171.1z"/>
	</g>
	<g id="XMLID_13_">
	</g>
</g>
</svg>
