<svg xmlns="http://www.w3.org/2000/svg" width="122" height="118.551" viewBox="0 0 122 118.551">
  <g id="Group_126" data-name="Group 126" transform="translate(-38.6 -7)">
    <g id="Background" transform="translate(40.971 7)">
      <path id="Path_1047" data-name="Path 1047" d="M59.276,0A59.276,59.276,0,1,1,0,59.276,59.276,59.276,0,0,1,59.276,0Z" transform="translate(0)" fill="#c6d9f2"/>
    </g>
    <g id="Layer_2" data-name="Layer 2" transform="translate(38.6 26.938)">
      <path id="Path_1046" data-name="Path 1046" d="M38.6,58.011,99.233,44,160.6,58.011Z" transform="translate(-38.6 -44)" fill="#fcfcfd"/>
      <rect id="Rectangle_642" data-name="Rectangle 642" width="105.079" height="4.311" transform="translate(8.837 68.436)" fill="#eaeaea"/>
      <path id="Rectangle_643" data-name="Rectangle 643" d="M0,0H18.322a0,0,0,0,1,0,0V3.028a2.9,2.9,0,0,1-2.9,2.9H2.9A2.9,2.9,0,0,1,0,3.028V0A0,0,0,0,1,0,0Z" transform="translate(39.553 18.322)" fill="#bdbdbe"/>
      <path id="Rectangle_644" data-name="Rectangle 644" d="M2.9,0H15.422a2.9,2.9,0,0,1,2.9,2.9V5.928a0,0,0,0,1,0,0H0a0,0,0,0,1,0,0V2.9A2.9,2.9,0,0,1,2.9,0Z" transform="translate(11.532 62.509)" fill="#bdbdbe"/>
      <path id="Rectangle_645" data-name="Rectangle 645" d="M0,0H18.322a0,0,0,0,1,0,0V3.028a2.9,2.9,0,0,1-2.9,2.9H2.9A2.9,2.9,0,0,1,0,3.028V0A0,0,0,0,1,0,0Z" transform="translate(67.574 18.322)" fill="#bdbdbe"/>
      <path id="Rectangle_646" data-name="Rectangle 646" d="M0,0H18.322a0,0,0,0,1,0,0V3.028a2.9,2.9,0,0,1-2.9,2.9H2.9A2.9,2.9,0,0,1,0,3.028V0A0,0,0,0,1,0,0Z" transform="translate(11.532 18.322)" fill="#bdbdbe"/>
      <rect id="Rectangle_647" data-name="Rectangle 647" width="112.624" height="4.311" transform="translate(5.065 72.747)" fill="#bdbdbe"/>
      <rect id="Rectangle_648" data-name="Rectangle 648" width="105.079" height="4.311" transform="translate(8.837 14.011)" fill="#eaeaea"/>
      <path id="Rectangle_649" data-name="Rectangle 649" d="M0,0H18.322a0,0,0,0,1,0,0V3.028a2.9,2.9,0,0,1-2.9,2.9H2.9A2.9,2.9,0,0,1,0,3.028V0A0,0,0,0,1,0,0Z" transform="translate(93.44 18.322)" fill="#bdbdbe"/>
      <rect id="Rectangle_650" data-name="Rectangle 650" width="14.549" height="38.26" transform="translate(41.17 24.249)" fill="#fcfcfd"/>
      <path id="Rectangle_651" data-name="Rectangle 651" d="M2.9,0H15.422a2.9,2.9,0,0,1,2.9,2.9V5.928a0,0,0,0,1,0,0H0a0,0,0,0,1,0,0V2.9A2.9,2.9,0,0,1,2.9,0Z" transform="translate(39.553 62.509)" fill="#bdbdbe"/>
      <path id="Rectangle_652" data-name="Rectangle 652" d="M2.9,0H15.422a2.9,2.9,0,0,1,2.9,2.9V5.928a0,0,0,0,1,0,0H0a0,0,0,0,1,0,0V2.9A2.9,2.9,0,0,1,2.9,0Z" transform="translate(67.574 62.509)" fill="#bdbdbe"/>
      <path id="Rectangle_653" data-name="Rectangle 653" d="M2.9,0H15.422a2.9,2.9,0,0,1,2.9,2.9V5.928a0,0,0,0,1,0,0H0a0,0,0,0,1,0,0V2.9A2.9,2.9,0,0,1,2.9,0Z" transform="translate(93.44 62.509)" fill="#bdbdbe"/>
      <rect id="Rectangle_654" data-name="Rectangle 654" width="14.549" height="38.26" transform="translate(13.148 24.249)" fill="#fcfcfd"/>
      <rect id="Rectangle_655" data-name="Rectangle 655" width="14.549" height="38.26" transform="translate(69.191 24.249)" fill="#fcfcfd"/>
      <rect id="Rectangle_656" data-name="Rectangle 656" width="14.549" height="38.26" transform="translate(95.057 24.249)" fill="#fcfcfd"/>
      <circle id="Ellipse_64" data-name="Ellipse 64" cx="4.311" cy="4.311" r="4.311" transform="translate(56.797 2.694)" fill="#bdbdbe"/>
      <rect id="Rectangle_657" data-name="Rectangle 657" width="1.078" height="33.949" transform="translate(15.843 26.405)" fill="#eaeaea"/>
      <rect id="Rectangle_658" data-name="Rectangle 658" width="1.078" height="33.949" transform="translate(20.154 26.405)" fill="#eaeaea"/>
      <rect id="Rectangle_659" data-name="Rectangle 659" width="1.078" height="33.949" transform="translate(24.465 26.405)" fill="#eaeaea"/>
      <rect id="Rectangle_660" data-name="Rectangle 660" width="1.078" height="33.949" transform="translate(43.864 26.405)" fill="#eaeaea"/>
      <rect id="Rectangle_661" data-name="Rectangle 661" width="1.078" height="33.949" transform="translate(48.175 26.405)" fill="#eaeaea"/>
      <rect id="Rectangle_662" data-name="Rectangle 662" width="1.078" height="33.949" transform="translate(51.947 26.405)" fill="#eaeaea"/>
      <rect id="Rectangle_663" data-name="Rectangle 663" width="1.078" height="33.949" transform="translate(76.196 25.866)" fill="#eaeaea"/>
      <rect id="Rectangle_664" data-name="Rectangle 664" width="1.078" height="33.949" transform="translate(71.885 25.866)" fill="#eaeaea"/>
      <rect id="Rectangle_665" data-name="Rectangle 665" width="1.078" height="33.949" transform="translate(80.507 25.866)" fill="#eaeaea"/>
      <rect id="Rectangle_666" data-name="Rectangle 666" width="1.078" height="33.949" transform="translate(101.523 26.405)" fill="#eaeaea"/>
      <rect id="Rectangle_667" data-name="Rectangle 667" width="1.078" height="33.949" transform="translate(105.834 26.405)" fill="#eaeaea"/>
      <rect id="Rectangle_668" data-name="Rectangle 668" width="1.078" height="33.949" transform="translate(97.212 26.405)" fill="#eaeaea"/>
    </g>
  </g>
</svg>
