<svg xmlns="http://www.w3.org/2000/svg" width="20" height="20" viewBox="0 0 20 20">
  <path id="qrcodescan_120401" d="M16.167,6A.167.167,0,0,0,16,6.167V7.833A.167.167,0,0,0,16.167,8h1.667A.167.167,0,0,0,18,7.833V6.167A.167.167,0,0,0,17.833,6ZM16,18v-.5a.5.5,0,0,1,1,0V18h1v-.5a.5.5,0,0,1,1,0v1a.5.5,0,0,1-.5.5h-4a.5.5,0,0,1-.5-.5v-1a.5.5,0,0,1,1,0V18Zm-3-7h.5a.5.5,0,0,1,0,1h-2a.5.5,0,0,1,0-1H12V10H10.5a.5.5,0,0,1,0-1h3a.5.5,0,0,1,0,1H13Zm5,1h-.5a.5.5,0,0,1,0-1H18v-.5a.5.5,0,0,1,1,0v2a.5.5,0,0,1-1,0Zm-5,2h-.5a.5.5,0,0,1,0-1h1a.5.5,0,0,1,.5.5v2a.5.5,0,0,1-.5.5h-3a.5.5,0,0,1,0-1H13V14Zm3.167-9h1.667A1.167,1.167,0,0,1,19,6.167V7.833A1.167,1.167,0,0,1,17.833,9H16.167A1.167,1.167,0,0,1,15,7.833V6.167A1.167,1.167,0,0,1,16.167,5Zm-10,0H7.833A1.167,1.167,0,0,1,9,6.167V7.833A1.167,1.167,0,0,1,7.833,9H6.167A1.167,1.167,0,0,1,5,7.833V6.167A1.167,1.167,0,0,1,6.167,5Zm0,1A.167.167,0,0,0,6,6.167V7.833A.167.167,0,0,0,6.167,8H7.833A.167.167,0,0,0,8,7.833V6.167A.167.167,0,0,0,7.833,6Zm0,9H7.833A1.167,1.167,0,0,1,9,16.167v1.667A1.167,1.167,0,0,1,7.833,19H6.167A1.167,1.167,0,0,1,5,17.833V16.167A1.167,1.167,0,0,1,6.167,15Zm0,1A.167.167,0,0,0,6,16.167v1.667A.167.167,0,0,0,6.167,18H7.833A.167.167,0,0,0,8,17.833V16.167A.167.167,0,0,0,7.833,16ZM13,6H10.5a.5.5,0,0,1,0-1h3a.5.5,0,0,1,.5.5v2a.5.5,0,0,1-1,0ZM10.5,8a.5.5,0,0,1,0-1h1a.5.5,0,0,1,0,1Zm-5,6a.5.5,0,0,1,0-1h2a.5.5,0,0,1,0,1Zm4,0a.5.5,0,0,1,0-1h1a.5.5,0,0,1,0,1ZM11,18v.5a.5.5,0,0,1-1,0v-1a.5.5,0,0,1,.5-.5h2a.5.5,0,0,1,0,1ZM9,11h.5a.5.5,0,0,1,0,1h-1a.5.5,0,0,1-.5-.5V11H7.5a.5.5,0,0,1,0-1h1a.5.5,0,0,1,.5.5Zm-4-.5a.5.5,0,0,1,1,0v1a.5.5,0,0,1-1,0Zm10,0a.5.5,0,0,1,1,0v2a.5.5,0,0,1-1,0ZM17,15v-.5a.5.5,0,0,1,.5-.5h1a.5.5,0,0,1,0,1H18v.5a.5.5,0,0,1-.5.5h-2a.5.5,0,0,1-.5-.5v-1a.5.5,0,0,1,1,0V15ZM3,6.5a.5.5,0,0,1-1,0v-2A2.5,2.5,0,0,1,4.5,2h2a.5.5,0,0,1,0,1h-2A1.5,1.5,0,0,0,3,4.5ZM17.5,3a.5.5,0,0,1,0-1h2A2.5,2.5,0,0,1,22,4.5v2a.5.5,0,0,1-1,0v-2A1.5,1.5,0,0,0,19.5,3ZM6.5,21a.5.5,0,0,1,0,1h-2A2.5,2.5,0,0,1,2,19.5v-2a.5.5,0,0,1,1,0v2A1.5,1.5,0,0,0,4.5,21ZM21,17.5a.5.5,0,0,1,1,0v2A2.5,2.5,0,0,1,19.5,22h-2a.5.5,0,0,1,0-1h2A1.5,1.5,0,0,0,21,19.5Z" transform="translate(-2 -2)" fill="#fff"/>
</svg>
