<svg xmlns="http://www.w3.org/2000/svg" xmlns:xlink="http://www.w3.org/1999/xlink" width="116" height="167" viewBox="0 0 116 167">
  <defs>
    <clipPath id="clip-path">
      <rect id="Rectangle_683" data-name="Rectangle 683" width="116" height="167" rx="15" transform="translate(33 348)" fill="#fff" stroke="#707070" stroke-width="1"/>
    </clipPath>
  </defs>
  <g id="Mask_Group_9" data-name="Mask Group 9" transform="translate(-33 -348)" clip-path="url(#clip-path)">
    <g id="Group_211" data-name="Group 211" transform="translate(-531.076 143.497)">
      <g id="Background" transform="translate(558.076 187.003)">
        <path id="Path_1087" data-name="Path 1087" d="M566.323,291.951S552.388,321,560.746,325.009s15.821-.856,15.821-.856S584.616,321.973,566.323,291.951Z" transform="translate(-558.076 -223.238)" fill="#acc5a5"/>
        <path id="Path_1088" data-name="Path 1088" d="M569.306,344.682s.8,3.75-.752,4.137h5.084s-1.575-.532-.619-4.137A13.482,13.482,0,0,1,569.306,344.682Z" transform="translate(-561.694 -241.443)" fill="#a49b8d"/>
        <path id="Path_1089" data-name="Path 1089" d="M592.911,342.655s1.052,4.952-.994,5.464h6.715s-2.079-.7-.818-5.464A17.818,17.818,0,0,1,592.911,342.655Z" transform="translate(-569.76 -240.744)" fill="#a49b8d"/>
        <path id="Path_1090" data-name="Path 1090" d="M687.739,397.331s-70.309-21.383-100.1,0-22.286,31.89-8.69,31.874,27.356,6.024,8.69,15.771-4.113,10.8,29.532,17.474,90.477-10.49,90.477-10.49S802.581,427.673,687.739,397.331Z" transform="translate(-561.162 -256.34)" fill="#acc5a5"/>
        <path id="Path_1091" data-name="Path 1091" d="M727.947,190.705s-104.357-16.8-144.9,21.176S625.8,260,625.8,260s137.358,31.755,87.6,2.292,14.039-53.034,14.549-53.034S773.269,201.61,727.947,190.705Z" transform="translate(-562.857 -187.003)" fill="#ccebfb"/>
        <path id="Path_1092" data-name="Path 1092" d="M588.97,273s-18.406,38.376-7.367,43.667,20.9-1.131,20.9-1.131S613.134,312.657,588.97,273Z" transform="translate(-564.981 -216.695)" fill="#acc5a5"/>
      </g>
      <g id="Layer_2" data-name="Layer 2" transform="translate(575.858 255.313)">
        <path id="Path_1093" data-name="Path 1093" d="M711.819,410.591l-4.8,4.8s-21.43-2.889-22.158,8.494c0,0,.691,4.03,13.479,3.323s29.536,2.409,33.432-1.076S711.819,410.591,711.819,410.591Z" transform="translate(-619.632 -332.509)" fill="#af9f87"/>
        <path id="Path_1094" data-name="Path 1094" d="M645.325,379.286s-3.056,10.115-7.964,12.57a25.042,25.042,0,0,0-7.713,5.959s-3.856,7.713-1.052,8.063,9.817-5.258,10.518-8.063,27.268-10.774,27.268-10.774Z" transform="translate(-599.853 -321.7)" fill="#af9f87"/>
        <path id="Path_1095" data-name="Path 1095" d="M821.917,406.547s24.048,8.074,30.849,4.377,29.757.738,33,12.544-.974,44.624-41.985,17.523l-30.563-17.523Z" transform="translate(-663.949 -331.112)" fill="#5c4824"/>
        <path id="Path_1096" data-name="Path 1096" d="M588.037,315.213s14.023-6.661,21.034-14.023,30.149-.35,36.11-1.052,36.11-9.466,46.627-8.764,17.178,1.052,30.851,14.374,22.086,43.822,20.684,57.495a24.081,24.081,0,0,1-.139,3.526c-.211,1.382-4.419,20.663-7.223,21.364s-24.19.7-35.408-2.1-23.148-16.613-23.148-16.613a194.451,194.451,0,0,1-23.45-12s-13.7-4.689-26.321-7.844-11.569-1.052-23.138-13.322c0,0-3.856-2.8-12.621-4.558C591.893,331.69,579.973,316.966,588.037,315.213Z" transform="translate(-585.236 -291.334)" fill="#af9f87"/>
        <path id="Path_1097" data-name="Path 1097" d="M589.088,327.8s4.356,6.127-3.606,5.167C585.481,332.964,583.829,327.446,589.088,327.8Z" transform="translate(-585.235 -303.918)" fill="#6e675a"/>
        <path id="Path_1098" data-name="Path 1098" d="M592.725,348.181v4.436h1.615l2.1-4.733Z" transform="translate(-587.821 -310.859)" fill="#fff7d0"/>
        <circle id="Ellipse_86" data-name="Ellipse 86" cx="2.805" cy="2.805" r="2.805" transform="translate(21.732 18.971)" fill="#6e675a"/>
        <path id="Path_1099" data-name="Path 1099" d="M635.668,302.328s2.384-4.7,6.591-5.048,6.661,9.466-2.1,9.115" transform="translate(-602.648 -293.384)" fill="#6e675a"/>
        <path id="Path_1100" data-name="Path 1100" d="M635.127,400.1s-4.841,3.33-5.542,4.732-3.856,8.764-1.052,8.063,4.207.351,10.518-8.063v-2.1l-1.4.7.35-1.4h-1.052l.351-1.052h-1.4l.42-1.368Z" transform="translate(-599.79 -328.716)" fill="#6e675a"/>
      </g>
    </g>
  </g>
</svg>
