<svg xmlns="http://www.w3.org/2000/svg" xmlns:xlink="http://www.w3.org/1999/xlink" width="116" height="167" viewBox="0 0 116 167">
  <defs>
    <clipPath id="clip-path">
      <rect id="Rectangle_694" data-name="Rectangle 694" width="116" height="167" rx="15" transform="translate(163 347)" fill="#fff" stroke="#707070" stroke-width="1"/>
    </clipPath>
  </defs>
  <g id="Mask_Group_10" data-name="Mask Group 10" transform="translate(-163 -347)" clip-path="url(#clip-path)">
    <g id="Group_212" data-name="Group 212" transform="translate(-602 -34)">
      <g id="Background">
        <path id="Path_1101" data-name="Path 1101" d="M824.527,460.645s-107.467-32.683-153.009,0-34.064,48.744-13.283,48.72,41.812,9.207,13.283,24.106-6.287,16.5,45.14,26.709,138.293-16.035,138.293-16.035S1000.063,507.023,824.527,460.645Z" fill="#a0cb94"/>
      </g>
      <g id="Layer_2" data-name="Layer 2">
        <path id="Path_1102" data-name="Path 1102" d="M842.22,359s-47.574,99.19-19.04,112.867,54.018-2.923,54.018-2.923S904.677,461.5,842.22,359Z" fill="#acc5a5"/>
        <path id="Path_1103" data-name="Path 1103" d="M840.057,476.877s2.717,12.8-2.569,14.123h17.357s-5.375-1.815-2.115-14.123A46.049,46.049,0,0,1,840.057,476.877Z" fill="#a49b8d"/>
        <path id="Path_1104" data-name="Path 1104" d="M791.559,379s-47.574,99.19-19.041,112.867,54.018-2.923,54.018-2.923S854.015,481.5,791.559,379Z" fill="#a0c1a5"/>
        <path id="Path_1105" data-name="Path 1105" d="M789.4,496.877s2.718,12.8-2.569,14.123h17.357s-5.374-1.815-2.114-14.123A46.058,46.058,0,0,1,789.4,496.877Z" fill="#a49b8d"/>
        <path id="Path_1106" data-name="Path 1106" d="M793.129,523.583a12.491,12.491,0,0,0-19.375-15.762,13.984,13.984,0,0,0-27.6-2.587,11.983,11.983,0,0,0-13.963,18.357A83.073,83.073,0,0,0,725.917,530h73.366A54.626,54.626,0,0,0,793.129,523.583Z" fill="#c1dcb7"/>
        <path id="Path_1107" data-name="Path 1107" d="M832.556,519s-26.769-31.134-27.663-44.067S805,433.27,829,438.135,871,477,877,488s9.3,26-11.351,31S851.113,523,832.556,519Z" fill="#8d9092"/>
        <path id="Path_1108" data-name="Path 1108" d="M857.8,522.385S839.333,499,846.166,488s15.634-4.062,15.634-4.062L870,493s9.642,18.4,8.321,19.2S872.2,522,872.2,522Z" fill="#9b9da0"/>
        <path id="Path_1109" data-name="Path 1109" d="M874.6,494.4l8.618-10.462L899,497l-4.379,11.754-16.3,3.446Z" fill="#adafb2"/>
      </g>
    </g>
  </g>
</svg>
