<svg xmlns="http://www.w3.org/2000/svg" width="323" height="68.064" viewBox="0 0 323 68.064">
  <g id="Group_308" data-name="Group 308" transform="translate(-22 -743.936)">
    <g id="Group_217" data-name="Group 217" transform="translate(-255.904 609.936)">
      <path id="Path_1048" data-name="Path 1048" d="M312.735,134s-26.826,48.957-12.742,56.669,27.451,0,27.451,0S341.572,187.651,312.735,134Z" fill="#acc5a5"/>
      <path id="Path_1049" data-name="Path 1049" d="M316.3,223.313s1.379,6.5-1.3,7.167h8.808s-2.727-.921-1.073-7.167A23.342,23.342,0,0,1,316.3,223.313Z" transform="translate(-6.289 -29.416)" fill="#a49b8d"/>
    </g>
    <g id="Group_218" data-name="Group 218" transform="translate(-273.904 629)">
      <path id="Path_1048-2" data-name="Path 1048" d="M307.7,134s-18.8,34.31-8.93,39.715,19.238,0,19.238,0S327.909,171.6,307.7,134Z" fill="#b7d6ae"/>
      <path id="Path_1049-2" data-name="Path 1049" d="M315.914,223.313s.966,4.553-.914,5.023h6.173s-1.911-.645-.752-5.023A16.359,16.359,0,0,1,315.914,223.313Z" transform="translate(-10.121 -47.336)" fill="#a49b8d"/>
    </g>
    <path id="Path_1117" data-name="Path 1117" d="M363.25,250.647a6.526,6.526,0,0,0-10.123-8.235,7.306,7.306,0,0,0-14.419-1.352,6.261,6.261,0,0,0-7.3,9.591,43.419,43.419,0,0,0-3.28,3.349h38.332A28.534,28.534,0,0,0,363.25,250.647Z" transform="translate(-263.133 556.6)" fill="#c1dcb7"/>
    <g id="Group_219" data-name="Group 219" transform="translate(2.096 631)">
      <path id="Path_1048-3" data-name="Path 1048" d="M307.7,134s-18.8,34.31-8.93,39.715,19.238,0,19.238,0S327.909,171.6,307.7,134Z" fill="#b7d6ae"/>
      <path id="Path_1049-3" data-name="Path 1049" d="M315.914,223.313s.966,4.553-.914,5.023h6.173s-1.911-.645-.752-5.023A16.359,16.359,0,0,1,315.914,223.313Z" transform="translate(-10.121 -47.336)" fill="#a49b8d"/>
    </g>
    <g id="Group_220" data-name="Group 220" transform="translate(14.096 610.936)">
      <path id="Path_1048-4" data-name="Path 1048" d="M312.735,134s-26.826,48.957-12.742,56.669,27.451,0,27.451,0S341.572,187.651,312.735,134Z" fill="#acc5a5"/>
      <path id="Path_1049-4" data-name="Path 1049" d="M316.3,223.313s1.379,6.5-1.3,7.167h8.808s-2.727-.921-1.073-7.167A23.342,23.342,0,0,1,316.3,223.313Z" transform="translate(-6.289 -29.416)" fill="#a49b8d"/>
    </g>
  </g>
</svg>
